<svg xmlns="http://www.w3.org/2000/svg" viewBox="0 0 115.817 127.318"><path data-name="Path 1556" d="M76.356 127.318c-1.78-.326-3.58-.569-5.337-.991a35.963 35.963 0 0 1-22.212-15.588 2.177 2.177 0 0 0-2.07-1.147q-15.975.06-31.951.019c-6.63-.011-11.98-3.638-13.95-9.576a15.807 15.807 0 0 1-.795-4.866Q-.03 54.834.018 14.5A14.2 14.2 0 0 1 14.509.02c13.966-.03 27.931 0 41.9-.02a3.978 3.978 0 0 1 3.073 1.328Q72.538 15.07 85.629 28.781a4.118 4.118 0 0 1 1.171 3.025c-.021 7.292-.01 14.584-.01 21.877v1.255c2.4.84 4.77 1.473 6.972 2.471 11.769 5.335 19.258 14.348 21.433 27.063 2.426 14.185-2.32 26.035-13.538 35.116a34.726 34.726 0 0 1-19.244 7.565 3.18 3.18 0 0 0-.589.167ZM45.394 104.3a37.23 37.23 0 0 1-1.59-22h-1.365c-6.839 0-13.678.01-20.517-.007-1.912-.005-3.08-1.066-3.069-2.679.011-1.578 1.114-2.545 2.991-2.616.331-.013.663 0 .995 0 6.425 0 12.852-.114 19.272.059 2.41.065 4.168-.259 4.788-2.877a3.617 3.617 0 0 1 .518-.986c.861-1.4 1.733-2.787 2.755-4.427H22.767a12.6 12.6 0 0 1-1.365-.041 2.567 2.567 0 0 1-2.545-2.538 2.613 2.613 0 0 1 2.517-2.71 9.626 9.626 0 0 1 1.241-.032c10.321 0 20.641-.015 30.962.019a4.156 4.156 0 0 0 2.811-.959 35.958 35.958 0 0 1 21.465-8.077c1.178-.045 2.36-.006 3.531-.006v-20.7h-1.457c-4.269 0-8.539.029-12.807-.018a15.56 15.56 0 0 1-3.814-.4c-5.549-1.482-8.824-5.832-8.868-11.7-.037-4.972-.006-9.946-.011-14.918 0-.434-.041-.869-.064-1.321-.437-.027-.722-.06-1.008-.06q-19.274 0-38.547.013a10.7 10.7 0 0 0-2.819.359c-4.212 1.172-6.677 4.5-6.682 9.186Q5.27 54.828 5.3 94.8a9.4 9.4 0 0 0 1.91 6.033c2.081 2.638 4.882 3.493 8.117 3.482 9.491-.03 18.983-.011 28.475-.011h1.59m33.925 17.744a31.178 31.178 0 1 0-31.147-31.17 31.239 31.239 0 0 0 31.149 31.168M59.787 9.4c0 4.656-.182 9.034.06 13.389a6.044 6.044 0 0 0 6.224 5.576c3.641.056 7.283.017 10.925.012a4.579 4.579 0 0 0 .693-.132L59.787 9.4" fill="#fff"/><path data-name="Path 1557" d="M34.905 50.189c4.431 0 8.863-.026 13.294.013a2.641 2.641 0 0 1 2.773 2.592 2.709 2.709 0 0 1-2.733 2.66c-.33.022-.663.008-.994.008H28.857c-2.4 0-4.8.01-7.206-.007a2.621 2.621 0 0 1-2.588-1.6 2.215 2.215 0 0 1 .472-2.742 4.691 4.691 0 0 1 2.574-.894c4.264-.089 8.53-.04 12.8-.04Z" fill="#fff"/><path data-name="Path 1558" d="M76.689 101.94V73.957c0-2.018.625-3.025 2.048-3.382a2.509 2.509 0 0 1 3.091 1.761 7.345 7.345 0 0 1 .2 1.841q.018 13.053.008 26.107v1.612c.408-.38.671-.6.9-.843q4.656-5.008 9.3-10.024c.141-.152.277-.309.424-.455 1.292-1.285 2.847-1.43 3.974-.373 1.15 1.078 1.137 2.6-.137 3.976q-6.243 6.758-12.533 13.472c-.819.88-1.62 1.777-2.459 2.636-1.477 1.511-2.986 1.553-4.415.029q-7.528-8.025-15-16.105a2.72 2.72 0 0 1-.153-3.991c1.124-1.092 2.774-.958 4.065.408 3.33 3.525 6.631 7.076 9.946 10.615.14.15.3.285.734.7" fill="#fff"/></svg>