<svg xmlns="http://www.w3.org/2000/svg" viewBox="0 0 140.628 128.66"><path data-name="Path 1561" d="M140.628 83.694a3.678 3.678 0 0 0-.262.6 11.678 11.678 0 0 1-11.7 9.266c-7.231.027-14.462.007-21.693.007h-71.4c-5.824 0-10.531-3.574-11.795-8.959a13.8 13.8 0 0 1-.351-3.12q-.03-34.676-.006-69.352c.006-6.077 3.772-10.767 9.5-11.911a16.862 16.862 0 0 1 3.278-.21Q81.995-.007 127.784 0c6.928 0 10.88 3.037 12.68 9.728.021.079.108.141.163.211ZM73.013 62.905c.46-.526.8-.9 1.116-1.279 7.06-8.456 14.091-16.937 21.206-25.347a11.85 11.85 0 0 1 3.667-2.984c3.813-1.866 7.72-.775 10.773 2.775q11.891 13.83 23.762 27.677c.33.383.682.747 1.152 1.261.063-.433.1-.564.1-.7q0-26.177-.01-52.355c-.007-3.771-2.538-6.129-6.408-6.13q-46.337-.006-92.675 0c-3.959 0-6.366 2.347-6.368 6.272q-.018 32.07 0 64.141c0 .37.063.739.1 1.109l.36.165a14.461 14.461 0 0 1 1.031-1.288q10.465-10.474 20.96-20.932c4.164-4.15 9.441-4.161 13.582-.037 2.523 2.513 5.037 5.036 7.653 7.653M30.076 84.777a6.239 6.239 0 0 0 5.5 2.959q5.767.006 11.534 0h81.01c4.274 0 6.648-2.361 6.666-6.6.008-1.873.085-3.752-.038-5.617a4.179 4.179 0 0 0-.856-2.306q-14.235-16.7-28.557-33.323c-1.883-2.193-3.669-2.131-5.556.132Q87.924 54.241 76.057 68.451c-1.863 2.231-3.451 2.295-5.5.249q-4.613-4.6-9.224-9.207c-2.012-2-3.466-2-5.477 0Q43.622 71.71 31.384 83.912a8.039 8.039 0 0 1-1.3.865" fill="#fff"/><path data-name="Path 1562" d="M100.527 128.66c-6.033-1.634-12.061-3.285-18.1-4.9q-36.606-9.786-73.215-19.561a11.666 11.666 0 0 1-8.983-9.332 2.347 2.347 0 0 0-.229-.48v-3.564c1.186-4.295 2.394-8.583 3.554-12.885Q7.6 62.946 11.6 47.944c.071-.264.142-.53.232-.788a2.963 2.963 0 0 1 3.555-2.036 2.907 2.907 0 0 1 2.056 3.642c-1.341 5.117-2.728 10.222-4.1 15.331l-7.13 26.558c-1.05 3.919.648 6.843 4.607 7.9q44.54 11.919 89.08 23.821c4.364 1.166 7.091-.418 8.263-4.759 1.414-5.239 2.81-10.483 4.235-15.719a2.96 2.96 0 0 1 2.747-2.473 2.576 2.576 0 0 1 2.738 1.659 4.936 4.936 0 0 1 .063 2.648c-1.022 4.068-2.156 8.108-3.25 12.158-.357 1.321-.686 2.65-1.071 3.962a11.607 11.607 0 0 1-8.926 8.547 3.684 3.684 0 0 0-.6.265Z" fill="#fff"/><path data-name="Path 1563" d="M52.765 40.914a11.68 11.68 0 1 1 11.7-11.686 11.774 11.774 0 0 1-11.7 11.686m5.8-11.636a5.826 5.826 0 1 0-5.886 5.8 5.832 5.832 0 0 0 5.886-5.8" fill="#fff"/></svg>