<svg xmlns="http://www.w3.org/2000/svg" viewBox="0 0 127.869 127.847"><path data-name="Path 1564" d="M102.66 26.369c2.945-2.955 5.627-5.633 8.293-8.326a7.37 7.37 0 0 1 5.273-2.371 6.985 6.985 0 0 1 5.169 1.982 204.886 204.886 0 0 1 4.115 4.119 7.308 7.308 0 0 1-.073 10.82q-12.587 12.653-25.2 25.278T75 83.119a6.83 6.83 0 0 1-2.862 1.659c-4.5 1.251-9.035 2.371-13.565 3.507-2.548.639-4-.9-3.319-3.467 1.219-4.562 2.408-9.133 3.707-13.672a5.926 5.926 0 0 1 1.465-2.423q18.063-18.187 36.2-36.3A3.085 3.085 0 0 0 97.641 30c-.046-6.378-.018-12.756-.025-19.134 0-3.858-2.072-5.922-5.953-5.923q-40.335-.007-80.671 0c-3.974 0-6.025 2.038-6.025 5.977v87.943c0 3.9 2.019 5.91 5.925 5.911q18.966 0 37.933-.021a5.8 5.8 0 0 1 3.613 1.183c6.352 4.6 12.743 9.14 19.122 13.7.335.239.685.457 1.146.763v-10.536c-.387-.022-.79-.05-1.192-.068a2.514 2.514 0 1 1-.028-5.014c.336-.015.674 0 1.011 0 6.533 0 13.066.012 19.6-.006a5.159 5.159 0 0 0 5.516-5.554q.023-13.3.006-26.611c0-.38-.013-.761.006-1.14a2.576 2.576 0 0 1 2.585-2.692 2.535 2.535 0 0 1 2.409 2.726c.012 9.461.073 18.924-.031 28.384a10.117 10.117 0 0 1-10.156 9.9c-4.383.054-8.767.012-13.15.013h-1.487v1.491c0 4.478-.008 8.955.005 13.432a2.628 2.628 0 0 1-4.472 2.327q-11.549-8.309-23.138-16.563a3.811 3.811 0 0 0-2.065-.659c-12.347-.039-24.695-.027-37.042-.029C4.316 109.794 0 105.5 0 98.733V10.917C0 5.408 3.141 1.291 8.179.216A12.752 12.752 0 0 1 10.817.01q40.525-.015 81.05 0c6.5 0 10.776 4.282 10.791 10.777.011 5.06 0 10.119 0 15.587m7.9-.431L65.323 71.222l7.077 7.141 45.248-45.343-7.085-7.082m3.632-4 7.332 7.406c1.736-1.474 1.81-2.676.215-4.3q-1.64-1.667-3.3-3.31c-1.562-1.54-2.725-1.479-4.244.2M61.08 82.473l6.059-1.673-4.349-4.368-1.71 6.041" fill="#fff"/><path data-name="Path 1565" d="M56.862 41.135c4.382 0 8.764-.013 13.145.008a2.483 2.483 0 0 1 2.667 2.038 2.278 2.278 0 0 1-1.292 2.63 4.357 4.357 0 0 1-1.832.337c-3.16.031-6.32.015-9.48.015h-15.8c-.337 0-.676.015-1.011-.012a2.573 2.573 0 0 1-2.543-2.483 2.539 2.539 0 0 1 2.62-2.519c1.979-.044 3.96-.014 5.94-.014h7.584" fill="#fff"/><path data-name="Path 1566" d="M35.484 82.958c3.959 0 7.919-.02 11.878.012a2.491 2.491 0 0 1 2.571 2.426 2.534 2.534 0 0 1-2.452 2.559c-.334.031-.673.014-1.01.014H23.852c-1.721-.054-2.873-1.107-2.826-2.579a2.571 2.571 0 0 1 2.833-2.428c3.875-.015 7.751 0 11.626 0" fill="#fff"/><path data-name="Path 1567" d="M33.679 25.203c-3.245 0-6.49.011-9.735 0-1.783-.008-2.907-.975-2.923-2.455s1.1-2.5 2.881-2.5q9.735-.031 19.469 0c1.827.005 2.882.948 2.891 2.463.009 1.573-1.063 2.489-2.976 2.5-3.2.013-6.406 0-9.608 0" fill="#fff"/><path data-name="Path 1568" d="M62.556 25.203c-2.482 0-4.965.015-7.447-.005-1.8-.015-2.844-.959-2.83-2.506.013-1.472 1.043-2.438 2.768-2.447q7.446-.042 14.894 0a2.516 2.516 0 0 1 2.8 2.448c.021 1.48-1.108 2.491-2.864 2.505-2.44.02-4.88.005-7.32.005" fill="#fff"/><path data-name="Path 1569" d="M28.345 41.126c1.515 0 3.03-.018 4.545.005a2.535 2.535 0 0 1 2.693 2.428 2.5 2.5 0 0 1-2.586 2.548q-4.67.085-9.342 0a2.5 2.5 0 0 1-2.628-2.505 2.553 2.553 0 0 1 2.773-2.475c1.515-.018 3.03 0 4.545 0" fill="#fff"/><path data-name="Path 1570" d="M47.124 62.085c1.386 0 2.773-.034 4.158.009a2.455 2.455 0 1 1 .043 4.91q-4.347.062-8.695 0a2.45 2.45 0 0 1-.042-4.9c1.51-.055 3.024-.012 4.536-.012Z" fill="#fff"/><path data-name="Path 1571" d="M28.655 62.093c.927 0 1.856-.043 2.78.009a2.448 2.448 0 0 1 .018 4.894q-2.778.086-5.56 0a2.448 2.448 0 0 1-.018-4.894c.924-.053 1.853-.01 2.78-.011" fill="#fff"/><path data-name="Path 1572" d="M81.947 25.177c-.841 0-1.687.054-2.523-.012a2.443 2.443 0 0 1-2.246-2.459 2.35 2.35 0 0 1 2.155-2.394 50.808 50.808 0 0 1 5.42 0 2.362 2.362 0 0 1 2.18 2.5 2.424 2.424 0 0 1-2.336 2.369c-.88.056-1.766.01-2.65.01v-.006" fill="#fff"/></svg>