<svg xmlns="http://www.w3.org/2000/svg" viewBox="0 0 78.542 17.75"><path data-name="Rectangle 267" fill="#916d33" d="M9.898.141h1.746v7.683H9.898z"/><path data-name="Path 1547" d="M0 .141v17.544h1.683V1.578h6.49V.141Z" fill="#003070"/><path data-name="Rectangle 268" fill="#003070" d="M3.309 7.824h2.353v1.47H3.309z"/><path data-name="Rectangle 269" fill="#003070" d="M9.898 9.292h1.746v8.388H9.898z"/><path data-name="Path 1548" d="M18.342 17.551a7.387 7.387 0 0 0 2.162-.707 8.322 8.322 0 0 0 2.095-1.5 7.407 7.407 0 0 0 2.353-4.56 11.219 11.219 0 0 0 0-3.916 7.5 7.5 0 0 0-2.275-4.528A9.058 9.058 0 0 0 18.831.361a33.906 33.906 0 0 0-5-.221h-.383v2.444h1.713v-.881q1.155 0 1.613.015a14.1 14.1 0 0 1 1.558.176 5.078 5.078 0 0 1 1.678.539 6.443 6.443 0 0 1 1.387 1.086 6.631 6.631 0 0 1 1.758 3.733 11.018 11.018 0 0 1 0 3.211 6.6 6.6 0 0 1-1.883 3.721 5.9 5.9 0 0 1-2.012 1.337 7.017 7.017 0 0 1-1.987.524c-.517.045-1.209.07-2.112.075v-4.125h-1.713v5.7l.364.018q.786.041 1.565.04c.258 0 .517 0 .775-.01a16.777 16.777 0 0 0 2.19-.188" fill="#003070"/><path data-name="Path 1549" d="M35.443.141h-8.572v17.544h8.571v-1.62h-6.883V1.579h6.888Z" fill="#003070"/><path data-name="Path 1550" d="M38.264 1.104a3.422 3.422 0 0 0-1.138 1.399 5.008 5.008 0 0 0-.331 1.756 4.015 4.015 0 0 0 .166 1.262 3.477 3.477 0 0 0 .547 1.1l.04.058.055.038a1.4 1.4 0 0 1 .186.193c.12.143.213.246.281.316.02.02.2.163.532.431.464.346 1.272.868 2.463 1.6a25.384 25.384 0 0 1 2.453 1.643 4.8 4.8 0 0 1 .773 1 2.022 2.022 0 0 1 .307 1.112 3.248 3.248 0 0 1-.236 1.272 3.452 3.452 0 0 1-.73 1.036 3.547 3.547 0 0 1-1.207.66 5.239 5.239 0 0 1-1.1.186 7.23 7.23 0 0 1-.527.018 6.427 6.427 0 0 1-.7-.035q-.625-.056-1.294-.135c-.441-.048-.83-.105-1.171-.163l-.447-.078v1.633l.351.028c.281.023.717.07 1.309.151s1.091.135 1.455.156c.12.008.253.01.391.01.276 0 .584-.013.931-.04a6.353 6.353 0 0 0 1.49-.3 5.957 5.957 0 0 0 1.751-1 4.853 4.853 0 0 0 1.169-1.583 5.388 5.388 0 0 0 .366-2.007 3.626 3.626 0 0 0-.193-1.272 3.364 3.364 0 0 0-.522-1.124 3.865 3.865 0 0 0-.589-.6 2.589 2.589 0 0 0-.517-.419 19.393 19.393 0 0 0-2.486-1.661 21.6 21.6 0 0 1-2.356-1.533 8.052 8.052 0 0 1-.88-.951 2.243 2.243 0 0 1-.349-1.033 2.422 2.422 0 0 1 .266-1.146 2.366 2.366 0 0 1 .727-.833 4.142 4.142 0 0 1 1.171-.552 9.758 9.758 0 0 1 1.646-.178h.6V.02h-.6a9.673 9.673 0 0 0-2.313.258 6.13 6.13 0 0 0-1.741.825" fill="#003070"/><path data-name="Rectangle 270" fill="#003070" d="M30.182 7.824h2.353v1.47h-2.353z"/><path data-name="Path 1551" d="M48.182 9.281h1.977v.013h28.383V0H50.159v7.515ZM66.326 7.6l-1.894-4.464L62.583 7.6h-.8l2.644-6.3 2.674 6.3Zm-6.9-.028h-.231v-.684l.208-.023a1.184 1.184 0 0 0 .221-.07.683.683 0 0 0 .2-.193.982.982 0 0 0 .128-.381 4.334 4.334 0 0 0 .055-.622V1.9h.748v3.77a2.532 2.532 0 0 1-.326 1.43 1.056 1.056 0 0 1-.455.365 1.318 1.318 0 0 1-.539.11m16.42-5.709v.69h-.3a2.992 2.992 0 0 0-.492.053 1.192 1.192 0 0 0-.319.156.657.657 0 0 0-.188.213.647.647 0 0 0-.07.306.587.587 0 0 0 .1.266 2.561 2.561 0 0 0 .251.268 7.582 7.582 0 0 0 .712.462 5.861 5.861 0 0 1 .785.524.9.9 0 0 1 .168.135 1.249 1.249 0 0 1 .193.2 1.157 1.157 0 0 1 .181.391 1.191 1.191 0 0 1 .063.416 1.8 1.8 0 0 1-.12.665 1.625 1.625 0 0 1-.391.532 1.925 1.925 0 0 1-.582.331 1.968 1.968 0 0 1-.489.1c-.11.01-.211.015-.3.015-.045 0-.088 0-.128-.005-.11-.005-.266-.023-.459-.048s-.314-.04-.4-.048l-.213-.015v-.748l.271.048c.1.02.223.035.356.05l.4.043a1.837 1.837 0 0 0 .2.01c.053 0 .105 0 .158-.005a1.6 1.6 0 0 0 .316-.053 1.031 1.031 0 0 0 .334-.183 1.02 1.02 0 0 0 .2-.283.9.9 0 0 0 .063-.346.512.512 0 0 0-.078-.283 1.367 1.367 0 0 0-.226-.291 7.965 7.965 0 0 0-.737-.494c-.369-.223-.62-.389-.773-.5a5.46 5.46 0 0 1-.178-.145l-.1-.108-.038-.04-.035-.025-.016-.029a1.148 1.148 0 0 1-.186-.379 1.289 1.289 0 0 1-.055-.421 1.666 1.666 0 0 1 .108-.582 1.159 1.159 0 0 1 .391-.484 1.989 1.989 0 0 1 .574-.273 3.079 3.079 0 0 1 .75-.085Zm-3.509-.153v6.369l-1.683-2.42.519-.492.444.632V1.713Zm-2.2 1.972-.509.479-.484-.677v4.088h-.717V1.214ZM57.21 7.6h-.778l-1.894-4.464L52.69 7.6h-.8l2.641-6.3Z" fill="#916d33"/></svg>