<svg xmlns="http://www.w3.org/2000/svg" viewBox="0 0 50.889 60.808"><path data-name="Path 258" d="M25.206 0h.477a4.581 4.581 0 0 0 .526.228q12.02 3.634 24.043 7.25a.736.736 0 0 1 .638.849c-.02 6.046.024 12.094-.035 18.14a29.676 29.676 0 0 1-.507 5.194 31.711 31.711 0 0 1-5.007 11.719 54.032 54.032 0 0 1-19.607 17.365.71.71 0 0 1-.581 0 58.414 58.414 0 0 1-8.083-5.21 47.5 47.5 0 0 1-14-16.485A28.117 28.117 0 0 1 .015 26.527C0 20.44.018 14.353 0 8.268a.676.676 0 0 1 .58-.774q10.294-3.085 20.577-6.2c1.356-.41 2.7-.862 4.049-1.294m.212 4.043c-.2.05-.375.084-.542.134q-10.26 3.1-20.524 6.181c-.467.139-.49.4-.489.779.007 5.136-.018 10.272.02 15.407a23.8 23.8 0 0 0 .341 3.96 29.756 29.756 0 0 0 5.738 12.522 49.889 49.889 0 0 0 13.106 12.052c.754.491 1.535.94 2.35 1.437Z" fill="#e52329"/></svg>