<svg xmlns="http://www.w3.org/2000/svg" viewBox="0 0 202.433 105.069"><path data-name="Path 260" d="M32.645 55.144h-5.114l-5.935-18.159v3.966l-9.4 4.793V10.049h8.835l9.09 26.162 9.023-26.162h8.909v35.7l-9.4-4.793v-4.022Zm-3.767-1.859h2.424l7.466-22.615h1.6l.146.93v8.215l5.677 2.9V11.91h-5.72l-9.609 27.862h-1.324l-.365-.624-9.465-27.238h-5.65v30.8l5.677-2.9v-9.141h1.6l.358.638Z" fill="#fff"/><path data-name="Path 261" d="M2.027 2.185h56.144v100.7H2.027ZM0 0v105.069h60.2V0Z" fill="#e52329"/><path data-name="Path 262" d="M4.865 100.047h50.466V5.025H4.865Zm14.869-26.676v13.06l-5.678 2.916V50.48l5.677-2.916v20.128h20.782V47.564l5.679 2.916v38.867l-5.679-2.915V73.371h-7.309v26.056h-5.679V73.371Zm34.977 26.056H35.066V75.232h3.588v12.335l9.4 4.827V49.347l-9.4-4.827v21.313H21.595V44.516l-9.4 4.827v43.052l9.4-4.827V75.232h4.073v24.195H5.484V5.647h49.227Z" fill="#fff"/><path data-name="Path 263" d="M138.808 39.322a6.642 6.642 0 0 0-.814 3.494v16.043a9.688 9.688 0 0 1-2.105 6.609 7.382 7.382 0 0 1-5.749 2.343 6.905 6.905 0 0 1-5.552-2.344 9.44 9.44 0 0 1-2.013-6.609V42.816a6.609 6.609 0 0 0-.812-3.494c.622.049 1.485.049 2.585.049h.575c1.1 0 1.964 0 2.633-.049a6.536 6.536 0 0 0-.863 3.494v16.667a5.981 5.981 0 0 0 .96 3.637 3.064 3.064 0 0 0 2.68 1.293c2.442 0 3.686-1.628 3.686-4.93V42.816a6.591 6.591 0 0 0-.814-3.494c.673.049 1.534.049 2.635.049h.335c1.1 0 2.011 0 2.632-.049m-11.443-2.011a1.485 1.485 0 0 1 1.054-2.538 1.378 1.378 0 0 1 1.006.432 1.5 1.5 0 0 1 0 2.105 1.377 1.377 0 0 1-1.006.43 1.413 1.413 0 0 1-1.054-.43m4.167 0a1.485 1.485 0 0 1 1.054-2.538 1.374 1.374 0 0 1 1 .432 1.5 1.5 0 0 1 0 2.105 1.373 1.373 0 0 1-1 .43 1.407 1.407 0 0 1-1.054-.43" fill="#fff"/><path data-name="Path 264" d="M143.868 63.646a5.578 5.578 0 0 0 2.97.959 3.837 3.837 0 0 0 2.585-.959 3.163 3.163 0 0 0 1.053-2.49 7.959 7.959 0 0 0-.094-1.053 4.252 4.252 0 0 0-.477-1.054 13.901 13.901 0 0 1-.624-.908c-.2-.241-.481-.526-.91-.959s-.718-.718-.912-.912c-.192-.141-.572-.476-1.1-.955s-.913-.767-1.054-.91a17.823 17.823 0 0 1-3.3-3.784 7.622 7.622 0 0 1-1.2-4.357 6.771 6.771 0 0 1 2.248-5.41 8.043 8.043 0 0 1 5.363-1.865 11.256 11.256 0 0 1 5.316 1.387v5.506c-1.438-2.346-3.209-3.494-5.361-3.494a4.035 4.035 0 0 0-2.4.72 2.776 2.776 0 0 0-1.006 2.344c0 1.722 1.053 3.543 3.209 5.457.291.289.861.767 1.677 1.487s1.387 1.291 1.819 1.722a22.293 22.293 0 0 1 1.483 1.724 7.549 7.549 0 0 1 1.2 2.3 9.484 9.484 0 0 1 .385 2.633 6.568 6.568 0 0 1-2.25 5.316 8.564 8.564 0 0 1-5.7 1.914 10.29 10.29 0 0 1-5.46-1.338l-.045-5.6a8.313 8.313 0 0 0 2.586 2.585" fill="#fff"/><path data-name="Path 265" d="M166.66 42.625V64.08a6.579 6.579 0 0 0 .814 3.543c-.429-.049-1.2-.049-2.3-.049h-1.147c-1.148 0-1.914 0-2.348.049a6.544 6.544 0 0 0 .818-3.543v-21.5h-.1a10.2 10.2 0 0 0-3.064.383 3.1 3.1 0 0 0-1.725 1.677l.146-5.316c1.2.047 3.447.047 6.846.047s5.65 0 6.847-.047l.143 5.411a3.134 3.134 0 0 0-1.579-1.725 8.819 8.819 0 0 0-2.776-.382Z" fill="#fff"/><path data-name="Path 266" d="M187.875 57.133a28.51 28.51 0 0 1 1.771 4.214 32.639 32.639 0 0 0 1.53 3.974c.577 1.246 1.15 2.009 1.772 2.25h-5.458a9.894 9.894 0 0 1-1.483-3.256c-.479-1.483-.863-2.823-1.148-4.116a10.614 10.614 0 0 0-1.485-3.545 3.727 3.727 0 0 0-2.682-1.867v9.293a6.575 6.575 0 0 0 .814 3.543c-.432-.049-1.2-.049-2.3-.049h-1.147c-1.148 0-1.915 0-2.348.049a6.451 6.451 0 0 0 .865-3.543V42.814a6.5 6.5 0 0 0-.865-3.494c.671.049 1.534.049 2.637.049h3.59c2.921 0 5.171.671 6.654 2.06a6.868 6.868 0 0 1 2.2 5.22 8.005 8.005 0 0 1-1.577 4.931 6.178 6.178 0 0 1-3.785 2.538 8.159 8.159 0 0 1 2.445 3.017m-2.348-6.607a5.133 5.133 0 0 0 .145-6.752 4.4 4.4 0 0 0-3.447-1.389h-.866a4.616 4.616 0 0 1-.669.047v9.577h1.293a4.5 4.5 0 0 0 3.543-1.483" fill="#fff"/><path data-name="Path 267" d="M201.617 64.078a6.586 6.586 0 0 0 .814 3.545c-.432-.051-1.2-.051-2.3-.051h-1.152c-1.148 0-1.914 0-2.344.051a6.494 6.494 0 0 0 .861-3.545V42.816a6.536 6.536 0 0 0-.861-3.494c.669.049 1.532.049 2.632.049h.577c1.1 0 1.962 0 2.585-.049a6.63 6.63 0 0 0-.814 3.494Zm-3.256-26.768a1.485 1.485 0 0 1 1.053-2.538 1.378 1.378 0 0 1 1.006.432 1.5 1.5 0 0 1 0 2.105 1.377 1.377 0 0 1-1.006.43 1.4 1.4 0 0 1-1.053-.43" fill="#fff"/><path data-name="Path 268" d="M86.134 29.935a6.554 6.554 0 0 0 .814 3.543c-.383-.051-1.148-.051-2.3-.051h-.955c-1.1 0-1.868 0-2.3.051a6.555 6.555 0 0 0 .812-3.543v-5.171q0-9.626.143-11.637c-.143.528-2.248 5.938-6.365 16.185-1.007-2.442-1.917-4.693-2.78-6.753s-1.485-3.543-1.867-4.5a41.401 41.401 0 0 1-1.054-2.586 14.115 14.115 0 0 1-.62-1.532c-.145-.286-.241-.575-.336-.814a46.8 46.8 0 0 1 .143 5.075c0 2.442-.047 6.515-.094 12.21a5.927 5.927 0 0 0 .861 3.066c-.432-.051-1.2-.051-2.346-.051h-.573c-1.15 0-1.917 0-2.349.051a6.467 6.467 0 0 0 .865-3.543V8.725a6.58 6.58 0 0 0-.865-3.545c.432.047 1.2.047 2.349.047h1.244c1.1 0 1.865 0 2.2-.047a1.405 1.405 0 0 0-.094.43 10.332 10.332 0 0 0 .814 3.064l-.047-.049c3.013 7.52 4.641 11.637 4.787 12.308.143-.72 1.724-4.981 4.645-12.783a8.168 8.168 0 0 0 .622-2.539 1.358 1.358 0 0 0-.1-.43c.383.047 1.1.047 2.2.047h1.059c1.152 0 1.917 0 2.3-.047a6.786 6.786 0 0 0-.814 3.545Z" fill="#fff"/><path data-name="Path 269" d="M107.444 29.935a6.57 6.57 0 0 0 .814 3.543c-.432-.051-1.2-.051-2.3-.051h-1.15c-1.152 0-1.915 0-2.348.051a6.452 6.452 0 0 0 .863-3.543v-9.96h-6.99v9.96a6.57 6.57 0 0 0 .814 3.543c-.432-.051-1.2-.051-2.3-.051h-1.145c-1.148 0-1.915 0-2.348.051a6.452 6.452 0 0 0 .863-3.543V8.674a6.5 6.5 0 0 0-.863-3.494c.671.047 1.534.047 2.637.047h.572c1.1 0 1.962 0 2.586-.047a6.616 6.616 0 0 0-.814 3.494v7.949h6.99V8.674a6.5 6.5 0 0 0-.863-3.494c.671.047 1.534.047 2.633.047h.575c1.1 0 1.962 0 2.586-.047a6.616 6.616 0 0 0-.812 3.494Z" fill="#fff"/><path data-name="Path 270" d="M120.995 8.483v21.452a6.557 6.557 0 0 0 .816 3.543c-.43-.049-1.2-.049-2.3-.049h-1.15c-1.148 0-1.914 0-2.346.049a6.557 6.557 0 0 0 .816-3.543V8.434h-.1a10.131 10.131 0 0 0-3.061.382 3.093 3.093 0 0 0-1.72 1.678l.146-5.314c1.2.045 3.447.045 6.846.045s5.65 0 6.847-.045l.145 5.41a3.139 3.139 0 0 0-1.584-1.724 8.761 8.761 0 0 0-2.776-.383Z" fill="#fff"/><path data-name="Path 271" d="M75.891 63.741a3.393 3.393 0 0 0 1.915-1.819l-.479 5.648h-9.91c-1.152 0-1.915 0-2.348.049a6.448 6.448 0 0 0 .861-3.543V42.815a6.5 6.5 0 0 0-.861-3.494h.382a1.841 1.841 0 0 0 .479.047h11.44l.051 4.932a3.182 3.182 0 0 0-3.066-1.534h-4.31v6.658c1.867 0 3.066 0 3.688-.049a4.626 4.626 0 0 0 2.395-.814 19.605 19.605 0 0 0-.1 2.346 20.026 20.026 0 0 0 .1 2.395 5.022 5.022 0 0 0-2.586-.814c-.573-.049-1.722-.049-3.5-.049v11.78h2.633a8.9 8.9 0 0 0 3.209-.477" fill="#fff"/><path data-name="Path 272" d="M98.202 64.08a6.5 6.5 0 0 0 .669 3.543 20.59 20.59 0 0 0-2.152-.049h-1.247c-1.1 0-1.87 0-2.2.049a2.391 2.391 0 0 0 .1-.624 8.033 8.033 0 0 0-.577-2.872v.047c-3.972-10.725-6.032-16.374-6.128-16.9.045.473.045 6.078.045 16.806a6.559 6.559 0 0 0 .812 3.543c-.43-.049-1.2-.049-2.3-.049h-.767c-1.148 0-1.915 0-2.348.049a6.456 6.456 0 0 0 .863-3.543V42.864a6.566 6.566 0 0 0-.863-3.543c.432.049 1.2.049 2.348.049h1.245c1.1 0 1.87 0 2.2-.049a1.357 1.357 0 0 0-.1.432 10.254 10.254 0 0 0 .814 3.062c3.782 9.77 5.744 15.135 5.938 16.043v-6.464c-.042-4.214-.042-7.423-.042-9.579l-.047.049a6.81 6.81 0 0 0-.814-3.543c.43.049 1.2.049 2.3.049h.767c1.148 0 1.915 0 2.3-.049a7.062 7.062 0 0 0-.814 3.543Z" fill="#fff"/><path data-name="Path 273" d="M119.512 53.351c0 4.549-.814 8.041-2.49 10.485a8.277 8.277 0 0 1-7.325 3.735h-4.071c-1.148 0-1.915 0-2.346.049a6.812 6.812 0 0 0 .863-3.543V42.816a6.522 6.522 0 0 0-.863-3.5c.669.049 1.534.049 2.633.049h3.063c7.037 0 10.533 4.645 10.533 13.983m-4.167.192c0-7.423-1.962-11.157-5.84-11.157h-1.243v22.17h1.485c3.733 0 5.6-3.688 5.6-11.013" fill="#fff"/><path data-name="Path 274" d="M86.134 98.222a6.554 6.554 0 0 0 .814 3.543c-.383-.049-1.148-.049-2.3-.049h-.955c-1.1 0-1.868 0-2.3.049a6.555 6.555 0 0 0 .812-3.543v-5.175q0-9.626.143-11.637c-.143.528-2.248 5.938-6.365 16.185-1.006-2.437-1.916-4.689-2.778-6.748s-1.485-3.543-1.867-4.5a41.155 41.155 0 0 1-1.054-2.586 13.819 13.819 0 0 1-.62-1.532c-.145-.286-.241-.573-.336-.814a46.843 46.843 0 0 1 .143 5.077c0 2.44-.047 6.513-.094 12.21a5.925 5.925 0 0 0 .861 3.064c-.432-.049-1.2-.049-2.346-.049h-.575c-1.15 0-1.917 0-2.349.049a6.463 6.463 0 0 0 .865-3.543V77.012a6.58 6.58 0 0 0-.865-3.545c.432.047 1.2.047 2.349.047h1.244c1.1 0 1.865 0 2.2-.047a1.4 1.4 0 0 0-.094.432 10.338 10.338 0 0 0 .814 3.062l-.047-.047c3.013 7.519 4.643 11.633 4.789 12.306.143-.72 1.724-4.979 4.645-12.785a8.152 8.152 0 0 0 .622-2.536 1.357 1.357 0 0 0-.1-.432c.383.047 1.1.047 2.2.047h1.057c1.152 0 1.917 0 2.3-.047a6.791 6.791 0 0 0-.814 3.545Z" fill="#fff"/><path data-name="Path 275" d="M101.985 97.885a3.387 3.387 0 0 0 1.915-1.819l-.479 5.65h-9.909c-1.152 0-1.917 0-2.348.047a6.463 6.463 0 0 0 .859-3.543V76.961a6.511 6.511 0 0 0-.864-3.494h.382a1.9 1.9 0 0 0 .477.045h11.45l.051 4.935a3.186 3.186 0 0 0-3.066-1.532h-4.31v6.656c1.867 0 3.064 0 3.688-.047a4.659 4.659 0 0 0 2.395-.814 19.2 19.2 0 0 0-.1 2.346 19.641 19.641 0 0 0 .1 2.395 4.989 4.989 0 0 0-2.586-.814c-.575-.049-1.724-.049-3.5-.049v11.775h2.633a8.9 8.9 0 0 0 3.209-.477" fill="#fff"/><path data-name="Path 276" d="M116.304 76.771V98.22a6.577 6.577 0 0 0 .814 3.545c-.429-.047-1.2-.047-2.3-.047h-1.15c-1.148 0-1.914 0-2.344.047a6.577 6.577 0 0 0 .814-3.545v-21.5h-.1a10.14 10.14 0 0 0-3.064.383 3.085 3.085 0 0 0-1.721 1.68l.145-5.316c1.2.047 3.449.047 6.847.047s5.65 0 6.847-.047l.143 5.41a3.136 3.136 0 0 0-1.582-1.724 8.832 8.832 0 0 0-2.778-.382Z" fill="#fff"/><path data-name="Path 277" d="M139.624 101.765c-.336 0-.816 0-1.485-.049h-3.063c-.671.049-1.2.049-1.532.049a2.094 2.094 0 0 0 .573-1.532 7.348 7.348 0 0 0-.145-1.293l-.573-3.207-.047-.194h-5.746l-.047.194-.622 3.207a6.9 6.9 0 0 0-.145 1.244 1.713 1.713 0 0 0 .767 1.581c-.336 0-.863 0-1.487-.049h-2.968c-.669.049-1.148.049-1.483.049a6.289 6.289 0 0 0 1.628-3.3l4.789-21.6a9.908 9.908 0 0 0 .286-2.009 2.015 2.015 0 0 0-.43-1.389c.573.047 1.438.047 2.536.047h.432c1.1 0 1.915 0 2.538-.047a2.015 2.015 0 0 0-.43 1.389 17.134 17.134 0 0 0 .19 1.816l5.077 22.268a7.66 7.66 0 0 0 1.389 2.825m-9.15-21.403c-.051.335-.767 4.263-2.25 11.828h4.45c-1.485-7.71-2.2-11.686-2.2-11.828" fill="#fff"/><path data-name="Path 278" d="M153.274 97.885a3.387 3.387 0 0 0 1.916-1.819l-.479 5.65h-9.91c-1.15 0-1.917 0-2.348.047a6.463 6.463 0 0 0 .859-3.543V76.961a6.511 6.511 0 0 0-.859-3.494c.671.045 1.534.045 2.633.045h.575c1.1 0 1.962 0 2.585-.045a6.633 6.633 0 0 0-.814 3.494v21.4h2.633a8.9 8.9 0 0 0 3.209-.477" fill="#fff"/></svg>