<!-- 
\sdata-name="[^"]*"
\sfill="[^"]*"
 -->
 
<svg width="0" height="0" class="hidden">
    <symbol xmlns="http://www.w3.org/2000/svg" viewBox="0 0 28.116 13.622" id="arrow_right"><path d="M28.117 7.031a5.5 5.5 0 0 1-.546.772q-2.711 2.725-5.446 5.426a1.1 1.1 0 1 1-1.583-1.517q1.775-1.777 3.558-3.546c.069-.069.134-.141.243-.256H1.238A1.12 1.12 0 0 1 .05 7.134a1.1 1.1 0 0 1 .97-1.418c.1-.007.2 0 .3 0h23.025a6.363 6.363 0 0 0-.244-.257L20.54 1.914a1.078 1.078 0 0 1-.307-1.13 1.038 1.038 0 0 1 .829-.756 1.1 1.1 0 0 1 1.045.347Q24.1 2.36 26.1 4.342c.493.491 1 .97 1.473 1.478a6.7 6.7 0 0 1 .546.771Z"/></symbol>
    <symbol xmlns="http://www.w3.org/2000/svg" viewBox="0 0 8.719 18.762" id="facebook"><path d="M5.749 4.23c0-.758.271-1.03 1.026-1.03h1.871V.012c-1.128 0-2.235-.032-3.34.007A3.362 3.362 0 0 0 1.96 2.974a25.032 25.032 0 0 0-.112 2.681v.432H0V9.4h1.865v9.359H5.75V9.392h2.63l.34-3.319H5.749V4.23"/></symbol>
    <symbol xmlns="http://www.w3.org/2000/svg" viewBox="0 0 18.73 13.118" id="youtube"><path d="M16.361.359a21.74 21.74 0 0 0-2.267-.223C12.509.067 10.923.037 9.638 0c-2.5.056-4.7.038-6.884.279a2.962 2.962 0 0 0-1.429.456A2.729 2.729 0 0 0 .239 2.741 26.135 26.135 0 0 0 0 6.1a26.058 26.058 0 0 0 .278 4.545A2.345 2.345 0 0 0 2.4 12.8a24.409 24.409 0 0 0 2.773.235c1.8.057 3.6.09 5.4.085a46.954 46.954 0 0 0 5.664-.278 2.381 2.381 0 0 0 2.079-1.685 6.178 6.178 0 0 0 .21-1.126c.079-.867.153-1.735.18-2.6a23.893 23.893 0 0 0-.288-5.031A2.333 2.333 0 0 0 16.361.359M7.5 9.374V3.781l4.857 2.8L7.5 9.374"/></symbol>
    <symbol xmlns="http://www.w3.org/2000/svg" viewBox="0 0 18.861 18.761" id="instagram"><path d="M9.384 4.561a4.791 4.791 0 0 0-4.834 4.8 4.794 4.794 0 0 0 4.822 4.838 4.793 4.793 0 0 0 4.818-4.813 4.79 4.79 0 0 0-4.806-4.825m-.027 7.958a3.139 3.139 0 1 1 3.153-3.142 3.125 3.125 0 0 1-3.153 3.142"/><path d="M14.402 3.228a1.123 1.123 0 1 0 .01 2.245 1.131 1.131 0 0 0 1.112-1.127 1.136 1.136 0 0 0-1.122-1.118"/><path d="M18.575 4.347a4.642 4.642 0 0 0-3.4-4.008A8.768 8.768 0 0 0 12.365 0c-2.54.014-5.081.012-7.619.1a4.721 4.721 0 0 0-3.2 1.43A5.427 5.427 0 0 0 .022 5.488a366.186 366.186 0 0 0-.007 7.558 7.75 7.75 0 0 0 .132 1.4 4.83 4.83 0 0 0 3.444 3.984 9.042 9.042 0 0 0 2.848.332c2.519-.013 5.038-.025 7.555-.1A4.706 4.706 0 0 0 16.76 17.6a5.323 5.323 0 0 0 1.959-4.27c.046-1.312.009-2.626.009-3.939h.133c-.086-1.682-.068-3.378-.286-5.044m-1.7 10.023A3.215 3.215 0 0 1 13.781 17c-.734.053-1.471.086-2.206.1s-1.474 0-2.21 0v.05c-1.461-.05-2.925-.071-4.384-.16a3.264 3.264 0 0 1-3.22-3.23c-.091-2.346-.092-4.7-.094-7.043a11.066 11.066 0 0 1 .2-2.32 3.143 3.143 0 0 1 3.107-2.628c2.368-.082 4.738-.089 7.108-.09a10.785 10.785 0 0 1 2.287.2 3.133 3.133 0 0 1 2.612 3.1c.082 2.357.09 4.717.091 7.076a11.025 11.025 0 0 1-.2 2.319"/></symbol>
    <symbol xmlns="http://www.w3.org/2000/svg" viewBox="0 0 19.104 15.716" id="twitter"><path d="M17.673 2.348c-.216.05-.436.086-.654.129A4.624 4.624 0 0 0 18.6.333c-.139.068-.222.118-.312.152-.616.234-1.235.463-1.85.7a.486.486 0 0 1-.562-.143 3.941 3.941 0 0 0-6.528 2.091 11.309 11.309 0 0 0-.1 1.745A11.4 11.4 0 0 1 1.113.715 4.1 4.1 0 0 0 2.3 6.006l-.048.077-1.685-.468a4.038 4.038 0 0 0 3.087 3.854l-.033.086H1.968a4.161 4.161 0 0 0 3.657 2.8 12.451 12.451 0 0 1-1.416.862 8.319 8.319 0 0 1-4.209.8 1.142 1.142 0 0 0 .268.2 11.027 11.027 0 0 0 5.487 1.5 10.686 10.686 0 0 0 6.117-1.649 11.287 11.287 0 0 0 5.3-9.806.619.619 0 0 1 .265-.56A7.081 7.081 0 0 0 19.1 1.913c-.282.1-.5.18-.717.246-.236.071-.475.133-.714.189"/></symbol>
    <symbol xmlns="http://www.w3.org/2000/svg" viewBox="0 0 19.612 18.761" id="linkedin"><path d="M19.532 10.272c-.246-2.062-1.361-4.212-4.335-4.436a4.179 4.179 0 0 0-3.97 1.74c-.06.083-.128.161-.257.322V6.151H6.806v12.6h4.167v-7.014a2.61 2.61 0 0 1 .6-1.812 2.2 2.2 0 0 1 2.28-.732 1.864 1.864 0 0 1 1.426 1.54 4.4 4.4 0 0 1 .134 1c.014 2.216.009 4.432.011 6.648v.378h4.182v-6.935a13.535 13.535 0 0 0-.076-1.548"/><path d="M2.327 0c-.15.02-.34.039-.527.071a2.139 2.139 0 0 0-1.743 2.6A2.033 2.033 0 0 0 1.739 4.3a2.4 2.4 0 0 0 2.531-.784A2.077 2.077 0 0 0 4.477 1.2 2.247 2.247 0 0 0 2.327 0"/><path d="M.279 6.141h4.139v12.62H.279z"/></symbol>
</svg>