<svg xmlns="http://www.w3.org/2000/svg" viewBox="0 0 39.497 60.807"><path data-name="Path 257" d="M19.738.006c4.538 0 9.075.011 13.612-.006a6.328 6.328 0 0 1 3.956 1.164 5.28 5.28 0 0 1 2.088 5.52 27.43 27.43 0 0 1-8.093 15.2 259.704 259.704 0 0 1-4.07 3.99c-2.925 2.822-2.885 6.213.01 9.09 2.323 2.307 4.654 4.622 6.78 7.107a24.124 24.124 0 0 1 5.4 12.292 5.339 5.339 0 0 1-4.329 6.267 8.226 8.226 0 0 1-1.765.165q-13.578.015-27.154.013a6.263 6.263 0 0 1-4.554-1.669 5.33 5.33 0 0 1-1.48-5.088 27.29 27.29 0 0 1 8.03-15.074c1.405-1.416 2.843-2.8 4.272-4.192A5.742 5.742 0 0 0 12.418 26a63.691 63.691 0 0 1-7.8-8.383A26.173 26.173 0 0 1 .082 6.375 5.376 5.376 0 0 1 4.431.177 10.065 10.065 0 0 1 6.34.013C10.806 0 15.272.006 19.738.006m-.054 56.233h11.968c1.143 0 1.794-.6 1.738-1.591a15.987 15.987 0 0 0-4.307-10.724c-2.673-2.728-5.52-5.282-8.315-7.889a1.521 1.521 0 0 0-2.182.136c-2.117 1.941-4.22 3.9-6.343 5.833a17.346 17.346 0 0 0-6.08 12.215c-.08 1.453.371 2.02 1.838 2.021q5.841.005 11.683 0" fill="#e52329"/></svg>