<svg xmlns="http://www.w3.org/2000/svg" viewBox="0 0 59.522 34.315"><path d="m10.796 29.755 14.728-12.6L10.796 4.559l-.217.056v1.826a8.094 8.094 0 0 1-.031.965 1.265 1.265 0 0 1-1.319 1.153 1.22 1.22 0 0 1-1.267-1.136 15.893 15.893 0 0 1 .171-3.457A5.173 5.173 0 0 1 13.422 0q11.593-.006 23.187 0h17.5a5.247 5.247 0 0 1 5.3 4.211 6.539 6.539 0 0 1 .108 1.345q.009 11.6 0 23.2a5.269 5.269 0 0 1-4.452 5.482 6.757 6.757 0 0 1-1.158.067H13.54a5.3 5.3 0 0 1-5.61-5.627c0-.516-.011-1.031 0-1.547a1.305 1.305 0 0 1 1.306-1.382 1.286 1.286 0 0 1 1.329 1.356c.03.852.007 1.706.007 2.559l.225.082m1.899-27.072c.284.258.422.39.567.513q9.641 8.232 19.284 16.461a1.5 1.5 0 0 0 2.376 0q9.664-8.254 19.327-16.51c.138-.118.265-.249.494-.465Zm0 28.941h42.072L39.886 18.878c-1.252 1.084-2.438 2.142-3.659 3.16a3.8 3.8 0 0 1-4.67.253 6.4 6.4 0 0 1-.551-.446c-1.135-.979-2.268-1.96-3.43-2.966l-14.88 12.736m44.1-1.747V4.449l-14.86 12.71 14.86 12.709" fill="#e52329"/><path d="M7.218 21.79H1.539a1.407 1.407 0 0 1-1.421-.806 1.283 1.283 0 0 1 .8-1.763 2.99 2.99 0 0 1 .828-.094q5.518-.009 11.035 0a4.028 4.028 0 0 1 .515.019 1.318 1.318 0 0 1-.076 2.633c-.794.034-1.591.011-2.387.012H7.218" fill="#e52329"/><path d="M9.226 12.528c1.248 0 2.5-.006 3.744 0 .972.006 1.563.52 1.56 1.332s-.592 1.323-1.57 1.327q-3.712.015-7.423 0c-.964 0-1.577-.544-1.575-1.336s.624-1.317 1.584-1.323c1.227-.008 2.453 0 3.679 0" fill="#e52329"/></svg>