<svg xmlns="http://www.w3.org/2000/svg" viewBox="0 0 52.231 52.233"><path d="M17.036.001H49.68a1.235 1.235 0 0 0 .182.085 3.047 3.047 0 0 1 2.367 3.1v40.086a3.1 3.1 0 0 1-3.425 3.449h-.664c1.3 1.29 2.481 2.464 3.664 3.636a1.047 1.047 0 0 1 .338 1.236 1.069 1.069 0 0 1-1.111.639q-19.609-.006-39.219 0c-.811 0-1.2-.381-1.2-1.178V11.733a1.013 1.013 0 0 1 .612-1.025.968.968 0 0 1 1.164.242c.665.669 1.318 1.35 1.976 2.026l.125-.07v-.538c0-3.077-.007-6.154 0-9.231A2.992 2.992 0 0 1 16.324.262c.227-.108.474-.175.712-.262m13.193 28.621-.05.128c.827.821 1.663 1.632 2.474 2.468a1.122 1.122 0 0 0 .891.371c3.247-.014 6.494-.009 9.741-.007a4.264 4.264 0 0 1 .661.033 1 1 0 0 1 .061 1.957 3.222 3.222 0 0 1-.659.047h-7.6c-.177 0-.353.018-.6.031.092.119.126.173.17.217q5.3 5.3 10.608 10.6a.847.847 0 0 0 .532.206c.833.021 1.666.013 2.5.009.865 0 1.232-.374 1.232-1.253V3.29c0-.876-.368-1.248-1.235-1.249H17.742c-.839 0-1.213.377-1.214 1.217 0 3.808-.006 7.616.01 11.424a1.033 1.033 0 0 0 .268.657q2.937 2.977 5.915 5.914a1.272 1.272 0 0 0 .794.314c1.325.032 2.652.014 3.978.015.867 0 1.734-.014 2.6.009a.985.985 0 0 1 1.046 1.107 1.01 1.01 0 0 1-1.139.92c-1.428.012-2.856 0-4.284.006-.169 0-.338.019-.655.038.931.914 1.756 1.7 2.549 2.516a1.235 1.235 0 0 0 .977.411c3.536-.015 7.072-.009 10.608-.008a4.422 4.422 0 0 1 .661.031 1 1 0 0 1 .027 1.968 3.33 3.33 0 0 1-.609.038h-9.046M12.666 20.74c.488 0 .928-.006 1.367 0 .723.013 1.162.389 1.175.994.014.639-.416 1.026-1.173 1.042-.453.009-.906 0-1.359 0v1.781c.8.157 1.181.508 1.175 1.073s-.381.9-1.167 1.051v1.778c.493 0 .95-.008 1.407 0a1.023 1.023 0 1 1-.008 2.036c-.469.007-.937 0-1.414 0v1.787c.788.132 1.174.48 1.181 1.048s-.348.888-1.174 1.1v1.771h1.341c.761.006 1.2.378 1.191 1.017s-.451 1.01-1.205 1.021c-.437.006-.874 0-1.328 0v1.762c.815.2 1.14.482 1.174 1.02s-.279.854-1.16 1.151v1.744c.515 0 .992-.019 1.465 0a1.015 1.015 0 1 1-.037 2.027c-.472.013-.945 0-1.438 0v4.222h4.134c.025-.05.052-.08.053-.11.008-.408.008-.816.019-1.223.019-.719.4-1.167 1-1.182.613-.015 1.024.45 1.04 1.19.01.435 0 .87 0 1.314h1.769c.192-.8.465-1.1 1-1.143.564-.043.85.237 1.166 1.136h1.741c0-.477-.009-.918 0-1.358a1.059 1.059 0 0 1 1.045-1.14 1.031 1.031 0 0 1 .991 1.13c.008.454 0 .908 0 1.383h1.776c.177-.8.5-1.151 1.067-1.154s.921.367 1.065 1.142h1.787c0-.474-.005-.914 0-1.353a1.024 1.024 0 1 1 2.036-.024c.01.454 0 .909 0 1.379h1.8c.106-.728.4-1.093.93-1.125a.884.884 0 0 1 .619.144 6.984 6.984 0 0 1 .677.973h1.662c0-.464-.005-.887 0-1.31.011-.721.388-1.168.987-1.184s1.032.455 1.049 1.188c.01.435 0 .871 0 1.316h1.762c.2-.8.47-1.1 1-1.142.557-.042.833.229 1.173 1.144h2.453L12.669 14.342v2.475c.855.244 1.17.531 1.183 1.065s-.3.841-1.185 1.116Z"/><path d="M0 12.854a1.436 1.436 0 0 0 .1-.222 3.877 3.877 0 0 1 7.65.995q.009 7.827 0 15.655 0 7.292-.008 14.584a2.865 2.865 0 0 1-.194 1.034c-.864 2.158-1.759 4.3-2.63 6.459-.2.5-.483.872-1.062.864-.553-.008-.825-.371-1.019-.851C1.971 49.233 1.09 47.1.211 44.967A3.721 3.721 0 0 0 0 44.579V12.854m2.075 30.338h3.6V16.515h-3.6Zm3.606-28.771c.095-.963.094-1.872-.82-2.457a1.727 1.727 0 0 0-1.965 0c-.918.582-.919 1.493-.825 2.461ZM2.554 45.286l1.325 3.223 1.315-3.223Z"/><path d="M33.347 13.666H23.256c-.979 0-1.322-.343-1.323-1.317V7.864c0-.873.365-1.235 1.242-1.236h20.386c.844 0 1.217.37 1.22 1.206q.007 2.293 0 4.587c0 .868-.374 1.242-1.242 1.243H33.346m-9.35-2.072h18.722v-2.9H23.996Z"/><path d="M33.391 18.624h-9.946c-.17 0-.341.006-.51-.01a1.011 1.011 0 0 1 .008-2.021c.152-.012.306-.008.459-.008h19.892a4.126 4.126 0 0 1 .661.033 1 1 0 0 1 .041 1.958 3.325 3.325 0 0 1-.659.047h-9.946"/><path d="M40.04 23.618c-1.187 0-2.375.015-3.562-.006a1.013 1.013 0 0 1-1.059-1.01 1.029 1.029 0 0 1 1.054-1.014c.152-.01.305-.006.458-.006h4.58c.746 0 1.493-.014 2.239.012a.993.993 0 0 1 1.029.978 1.021 1.021 0 0 1-1.024 1.043c-.135.011-.271.007-.407.007H40.04Z"/><path d="M44.781 27.596a1.017 1.017 0 1 1-2.034-.018 1.017 1.017 0 0 1 2.034.018"/><path d="M26.65 45.95h-8.414c-1.019 0-1.349-.324-1.349-1.336V27.785a3.134 3.134 0 0 1 .022-.458 1 1 0 0 1 1.584-.69 2.581 2.581 0 0 1 .338.308q8.529 8.527 17.056 17.057a2.431 2.431 0 0 1 .336.38.991.991 0 0 1-.7 1.546 3.925 3.925 0 0 1-.56.021h-8.312m-7.692-2.082h13.635L18.958 30.233Z"/></svg>